<svg id="l1" xmlns="http://www.w3.org/2000/svg" xmlns:xlink="http://www.w3.org/1999/xlink" width="41.999" height="46" viewBox="0 0 41.999 46">
  <defs>
    <clipPath id="clip-path">
      <path id="ic_compass" d="M4.476,45.851a1,1,0,0,1-.328-1.375l6.961-11.311A21.978,21.978,0,0,1,0,16.094,1,1,0,1,1,2,15.907,19.976,19.976,0,0,0,12.158,31.46l7.555-12.278A7,7,0,0,1,22.126,6.053q0-.027,0-.054V1a1,1,0,1,1,2,0V6c0,.03,0,.06,0,.089a7,7,0,0,1,2.165,13.093L41.851,44.476a1,1,0,0,1-1.7,1.048l-7.564-12.29A22.034,22.034,0,0,1,12.9,34.07L5.851,45.524a1,1,0,0,1-1.375.328Zm9.482-13.5a20.036,20.036,0,0,0,17.577-.823L32.442,33,24.359,19.868a7.065,7.065,0,0,1-2.719,0Z" transform="translate(0)" fill="none"/>
    </clipPath>
  </defs>
  <g id="Group_6" data-name="Group 6" transform="translate(0)">
    <path id="ic_compass-2" data-name="ic_compass" d="M4.476,45.851a1,1,0,0,1-.328-1.375l6.961-11.311A21.978,21.978,0,0,1,0,16.094,1,1,0,1,1,2,15.907,19.976,19.976,0,0,0,12.158,31.46l7.555-12.278A7,7,0,0,1,22.126,6.053q0-.027,0-.054V1a1,1,0,1,1,2,0V6c0,.03,0,.06,0,.089a7,7,0,0,1,2.165,13.093L41.851,44.476a1,1,0,0,1-1.7,1.048l-7.564-12.29A22.034,22.034,0,0,1,12.9,34.07L5.851,45.524a1,1,0,0,1-1.375.328Zm9.482-13.5a20.036,20.036,0,0,0,17.577-.823L32.442,33,24.359,19.868a7.065,7.065,0,0,1-2.719,0Z" transform="translate(0)" fill="none"/>
    <g id="Mask_Group_6" data-name="Mask Group 6" clip-path="url(#clip-path)">
      <g id="_3._Light_80_" data-name="3. Light 80%" transform="translate(-4.001 -4)">
        <rect id="_3._Color_3._Light_3._Light_80_background" data-name="3. Color / 3. Light / 3. Light 80% background" width="50" height="50" fill="none"/>
        <rect id="Placeholder" width="50" height="50" fill="rgba(255,255,255,0.8)"/>
      </g>
    </g>
  </g>
</svg>
