<svg id="l2" xmlns="http://www.w3.org/2000/svg" xmlns:xlink="http://www.w3.org/1999/xlink" width="49.999" height="49.999" viewBox="0 0 49.999 49.999">
  <defs>
    <clipPath id="clip-path">
      <path id="ic_feather_pen" data-name="ic_feather pen" d="M.293,49.707a1,1,0,0,1,0-1.415l5.759-5.759Q9.112,19.5,18.293,10.292,27.594.991,48.927,0a1.009,1.009,0,0,1,.1,0h.021a.994.994,0,0,1,.724.365l0,0,.01.013.008.01L49.8.4l.01.014,0,0,.013.019h0a.992.992,0,0,1,.107.206l0,.007.006.016,0,.015,0,.008.005.017,0,.006.005.019v0l.005.02v0l0,.02v0l0,.02V.812l0,.019V.837l0,.018a1,1,0,0,1,0,.3Q48.024,16.43,43.648,24.67a1,1,0,0,1-.662.506c-3.06.691-5.359,1.186-6.919,1.487q1.269,1.269,3.638,3.627a1,1,0,0,1,0,1.417Q28.582,42.832,7.434,43.978L1.706,49.707a1,1,0,0,1-1.413,0Z" fill="none"/>
    </clipPath>
  </defs>
  <g id="Group_11" data-name="Group 11">
    <path id="ic_feather_pen-2" data-name="ic_feather pen" d="M.293,49.707a1,1,0,0,1,0-1.415l5.759-5.759Q9.112,19.5,18.293,10.292,27.594.991,48.927,0a1.009,1.009,0,0,1,.1,0h.021a.994.994,0,0,1,.724.365l0,0,.01.013.008.01L49.8.4l.01.014,0,0,.013.019h0a.992.992,0,0,1,.107.206l0,.007.006.016,0,.015,0,.008.005.017,0,.006.005.019v0l.005.02v0l0,.02v0l0,.02V.812l0,.019V.837l0,.018a1,1,0,0,1,0,.3Q48.024,16.43,43.648,24.67a1,1,0,0,1-.662.506c-3.06.691-5.359,1.186-6.919,1.487q1.269,1.269,3.638,3.627a1,1,0,0,1,0,1.417Q28.582,42.832,7.434,43.978L1.706,49.707a1,1,0,0,1-1.413,0Z" fill="none"/>
    <g id="Mask_Group_11" data-name="Mask Group 11" clip-path="url(#clip-path)">
      <g id="_1._Light_100_" data-name="1. Light 100%" transform="translate(0 0)">
        <rect id="_3._Color_3._Light_1._Light_100_background" data-name="3. Color / 3. Light / 1. Light 100% background" width="50" height="50" fill="none"/>
        <rect id="Placeholder" width="50" height="50" fill="#fff"/>
      </g>
    </g>
  </g>
</svg>
