<svg xmlns="http://www.w3.org/2000/svg" width="51.977" height="51.983" viewBox="0 0 51.977 51.983">
  <g id="mission" transform="translate(0 -0.001)">
    <path id="Path_35086" data-name="Path 35086" d="M165.187,155.707a1.295,1.295,0,0,0,0-2.59,10.359,10.359,0,1,0,10.359,10.359,1.295,1.295,0,0,0-2.59,0,7.769,7.769,0,1,1-7.769-7.769Zm0,0" transform="translate(-139.108 -137.57)" fill="#fff"/>
    <path id="Path_35087" data-name="Path 35087" d="M50.786,18.215a1.3,1.3,0,0,0-2.473.774A23.4,23.4,0,1,1,33,3.673,1.3,1.3,0,0,0,33.77,1.2,25.985,25.985,0,1,0,50.786,18.215Zm0,0" transform="translate(0 0)" fill="#fff"/>
    <path id="Path_35088" data-name="Path 35088" d="M98.9,78.068A1.4,1.4,0,0,0,97.6,76.66c-.387-.033-.774-.066-1.171-.066a18.129,18.129,0,1,0,18.128,18.129,11.413,11.413,0,0,0-.086-1.4,1.3,1.3,0,0,0-2.574.375c0,.027.009.054.014.081.028.314.056.625.056.945A15.539,15.539,0,1,1,96.433,79.184h0c.321,0,.633.028.945.056l.243.02A1.226,1.226,0,0,0,98.9,78.087c0-.006,0-.012,0-.018Zm0,0" transform="translate(-70.354 -68.816)" fill="#fff"/>
    <path id="Path_35089" data-name="Path 35089" d="M253.027,34.646v4.643l-8.685,8.685a1.295,1.295,0,1,0,1.8,1.863l.032-.032,8.685-8.685H259.5a1.3,1.3,0,0,0,.916-.38l7.769-7.769a1.295,1.295,0,0,0-.915-2.21h-3.885V26.876a1.295,1.295,0,0,0-2.21-.915l-7.769,7.769a1.293,1.293,0,0,0-.38.915Zm2.59.536L260.8,30v2.054a1.3,1.3,0,0,0,1.295,1.295h2.054l-5.18,5.18h-3.349Zm0,0" transform="translate(-219.178 -22.984)" fill="#fff"/>
  </g>
</svg>
