<svg id="s1" xmlns="http://www.w3.org/2000/svg" width="657.69" height="657.69" viewBox="0 0 657.69 657.69">
  <g id="Layer_x0020_1">
    <path id="Path_35065" data-name="Path 35065" d="M340.947,750.761A387.18,387.18,0,0,1,21.156,581.619a9.07,9.07,0,0,1,0-8.862c152.575-225.009,487.007-225.009,639.967,0a9.07,9.07,0,0,1,0,8.862A387.352,387.352,0,0,1,340.947,750.761ZM36.953,577C184.9,787.749,497.374,787.749,645.326,577,497.374,366.627,184.9,366.627,36.953,577Z" transform="translate(-12.294 -248.343)" fill="#fff"/>
    <path id="Path_35066" data-name="Path 35066" d="M576.38,750.146C480.829,750.146,403,672.318,403,576.38,403,480.829,480.829,403,576.38,403c95.937,0,173.766,77.829,173.766,173.38C750.146,672.318,672.318,750.146,576.38,750.146Zm0-331.735c-87.076,0-157.969,70.893-157.969,157.969,0,87.461,70.893,158.354,157.969,158.354A158.349,158.349,0,0,0,734.735,576.38C734.735,489.3,663.841,418.412,576.38,418.412Z" transform="translate(-247.728 -247.728)" fill="#fff"/>
    <path id="Path_35067" data-name="Path 35067" d="M643.384,775.153C570.949,775.153,512,716.2,512,643.384,512,570.949,570.949,512,643.384,512c72.82,0,131.769,58.949,131.769,131.384A131.711,131.711,0,0,1,643.384,775.153Zm0-247.742A116.09,116.09,0,0,0,527.412,643.384c0,64.343,52.014,116.358,115.972,116.358A116.254,116.254,0,0,0,759.742,643.384C759.742,579.426,707.727,527.412,643.384,527.412Z" transform="translate(-314.731 -314.731)" fill="#fff"/>
    <path id="Path_35068" data-name="Path 35068" d="M643.014,660.028a52.014,52.014,0,1,1,52.014-52.014A51.8,51.8,0,0,1,643.014,660.028Zm0-88.617a36.6,36.6,0,0,0,0,73.205,36.6,36.6,0,0,0,0-73.205Z" transform="translate(-363.294 -341.779)" fill="#fff"/>
    <path id="Path_35069" data-name="Path 35069" d="M618.005,657.69H467.742c-10.018,0-10.018-15.412,0-15.412H618.005a24.172,24.172,0,0,0,24.273-24.273V495.1c0-10.018,15.412-10.018,15.412,0V618.005A39.628,39.628,0,0,1,618.005,657.69Zm-428.443,0H39.3A39.548,39.548,0,0,1,0,618.005V495.1c0-10.018,15.412-10.018,15.412,0V618.005A24.092,24.092,0,0,0,39.3,642.279H189.563C199.966,642.279,199.966,657.69,189.563,657.69ZM649.984,224.624a7.728,7.728,0,0,1-7.706-7.706V39.3a24.092,24.092,0,0,0-24.273-23.888H467.742c-10.018,0-10.018-15.412,0-15.412H618.005A39.548,39.548,0,0,1,657.69,39.3V216.918A7.728,7.728,0,0,1,649.984,224.624Zm-642.279,0A7.728,7.728,0,0,1,0,216.918V39.3A39.465,39.465,0,0,1,39.3,0H189.563c10.4,0,10.4,15.412,0,15.412H39.3A24.008,24.008,0,0,0,15.412,39.3V216.918A7.728,7.728,0,0,1,7.706,224.624Z" fill="#fff"/>
  </g>
</svg>
