<svg xmlns="http://www.w3.org/2000/svg" xmlns:xlink="http://www.w3.org/1999/xlink" width="682.665" height="682.665" viewBox="0 0 682.665 682.665">
  <defs>
    <clipPath id="clip-path">
      <path id="path4701" d="M0-682.665H682.665V0H0Z" fill="#fff"/>
    </clipPath>
  </defs>
  <g id="s3" transform="translate(0 -0.001)">
    <g id="g4695" transform="translate(0 682.667)">
      <g id="g4697">
        <g id="g4699" clip-path="url(#clip-path)">
          <g id="g4705" transform="translate(174.039 -93.226)">
            <path id="path4707" d="M0,0A362.337,362.337,0,0,1-164.04-154.333c61.2-112.133,180.186-188.226,316.946-188.226a359.108,359.108,0,0,1,204.133,63.267" fill="none" stroke="#fff" stroke-linecap="round" stroke-linejoin="round" stroke-miterlimit="10" stroke-width="20"/>
          </g>
          <g id="g4709" transform="translate(584.306 -327.853)">
            <path id="path4711" d="M0,0A362.163,362.163,0,0,1,59.585,80.293C-1.628,192.453-120.6,268.533-257.361,268.533a360.126,360.126,0,0,1-115.865-19.013" fill="none" stroke="#fff" stroke-linecap="round" stroke-linejoin="round" stroke-miterlimit="10" stroke-width="20"/>
          </g>
          <g id="g4713" transform="translate(460.845 -247.551)">
            <path id="path4715" d="M0,0A133.9,133.9,0,0,0-133.9-133.9,133.9,133.9,0,0,0-267.8,0,133.9,133.9,0,0,0-133.9,133.9,133.9,133.9,0,0,0,0,0Z" fill="none" stroke="#fff" stroke-linecap="round" stroke-linejoin="round" stroke-miterlimit="10" stroke-width="20"/>
          </g>
          <g id="g4717" transform="translate(380.882 -247.551)">
            <path id="path4719" d="M0,0A53.936,53.936,0,0,0-53.937-53.937,53.937,53.937,0,0,0-107.874,0,53.938,53.938,0,0,0-53.937,53.937,53.937,53.937,0,0,0,0,0Z" fill="none" stroke="#fff" stroke-linecap="round" stroke-linejoin="round" stroke-miterlimit="10" stroke-width="20"/>
          </g>
          <g id="g4721" transform="translate(644.345 -548.785)">
            <path id="path4723" d="M0,0,15.707-31.08A29.966,29.966,0,0,0-11.039-74.56H-96.853A29.965,29.965,0,0,0-124.28-56.667l-56.133,127.52a27.555,27.555,0,0,0,25.227,38.653h65.2l-36.867,105.68c-9.6,27.547,24.947,48.88,45.268,27.947L19.787,138.706C38.241,119.693,24.773,87.853-1.72,87.853H-44.4l26.373-52.187" fill="none" stroke="#fff" stroke-linecap="round" stroke-linejoin="round" stroke-miterlimit="10" stroke-width="20"/>
          </g>
          <g id="g4725" transform="translate(202.573 -297.219)">
            <path id="path4727" d="M0,0-48.275-35.205l-4.607-23.3" fill="none" stroke="#fff" stroke-linecap="round" stroke-linejoin="round" stroke-miterlimit="10" stroke-width="20"/>
          </g>
          <g id="g4729" transform="translate(154.299 -332.425)">
            <path id="path4731" d="M0,0-29.2,27.723" fill="none" stroke="#fff" stroke-linecap="round" stroke-linejoin="round" stroke-miterlimit="10" stroke-width="20"/>
          </g>
          <g id="g4733" transform="translate(88.412 -265.041)">
            <path id="path4735" d="M0,0,104.633,17.491" fill="none" stroke="#fff" stroke-linecap="round" stroke-linejoin="round" stroke-miterlimit="10" stroke-width="20"/>
          </g>
          <g id="g4737" transform="translate(100.392 -220.119)">
            <path id="path4739" d="M0,0,33.424-37.333" fill="none" stroke="#fff" stroke-linecap="round" stroke-linejoin="round" stroke-miterlimit="10" stroke-width="20"/>
          </g>
          <g id="g4741" transform="translate(218.654 -168.797)">
            <path id="path4743" d="M0,0-46.885,17.809-57.867,37.775" fill="none" stroke="#fff" stroke-linecap="round" stroke-linejoin="round" stroke-miterlimit="10" stroke-width="20"/>
          </g>
          <g id="g4745" transform="translate(139.699 -177.941)">
            <path id="path4747" d="M0,0,32.069,26.953" fill="none" stroke="#fff" stroke-linecap="round" stroke-linejoin="round" stroke-miterlimit="10" stroke-width="20"/>
          </g>
          <g id="g4749" transform="translate(460.845 -247.551)">
            <path id="path4751" d="M0,0,74.548,20.695,88.025,61.873" fill="none" stroke="#fff" stroke-linecap="round" stroke-linejoin="round" stroke-miterlimit="10" stroke-width="20"/>
          </g>
          <g id="g4753" transform="translate(587.055 -256.296)">
            <path id="path4755" d="M0,0-51.661,29.44" fill="none" stroke="#fff" stroke-linecap="round" stroke-linejoin="round" stroke-miterlimit="10" stroke-width="20"/>
          </g>
          <g id="g4757" transform="translate(447.138 -306.605)">
            <path id="path4759" d="M0,0,35.471-11.959" fill="none" stroke="#fff" stroke-linecap="round" stroke-linejoin="round" stroke-miterlimit="10" stroke-width="20"/>
          </g>
        </g>
      </g>
    </g>
  </g>
</svg>
