<svg xmlns="http://www.w3.org/2000/svg" width="59.995" height="57.001" viewBox="0 0 59.995 57.001">
  <g id="s5" transform="translate(-0.005 0)">
    <g id="Page-1">
      <g id="_011---Sore-Eyes" data-name="011---Sore-Eyes">
        <path id="Shape" d="M30,0A39.241,39.241,0,0,0,2.26,11.327a1,1,0,0,0,1.479,1.346,37.644,37.644,0,0,1,52.522,0,1,1,0,0,0,1.479-1.346A39.241,39.241,0,0,0,30,0Z" fill="#fff"/>
        <path id="Shape-2" data-name="Shape" d="M24,25a6,6,0,1,0,6-6A6,6,0,0,0,24,25Zm10,0a4,4,0,1,1-4-4A4,4,0,0,1,34,25Z" fill="#fff"/>
        <path id="Shape-3" data-name="Shape" d="M60,24.971a2.986,2.986,0,0,0-.62-1.8C56.08,18.912,44.224,5,30,5S3.92,18.912.626,23.176a2.98,2.98,0,0,0-.621,1.8v.029c0,.009,0,.016,0,.025a2.978,2.978,0,0,0,.62,1.8C2.839,29.688,8.9,36.878,16.937,41.311c-1.192-.353-2.373-.759-3.56-1.234a1,1,0,0,0-.744,1.858A44.214,44.214,0,0,0,30,45a44.214,44.214,0,0,0,17.372-3.071,1,1,0,1,0-.744-1.858c-1.187.475-2.368.881-3.56,1.234,8.038-4.433,14.1-11.623,16.306-14.481a2.972,2.972,0,0,0,.621-1.8c0-.009.005-.016.005-.025v-.028ZM30,7c9.622,0,18.2,6.957,23.415,12.355A47.916,47.916,0,0,0,38.24,13.769a.072.072,0,0,1-.038-.007,44.518,44.518,0,0,0-16.4,0,.077.077,0,0,0-.039.007A47.906,47.906,0,0,0,6.585,19.355C11.8,13.957,20.378,7,30,7ZM42,25a12,12,0,1,1-19.54-9.321,42.2,42.2,0,0,1,15.08,0A11.928,11.928,0,0,1,42,25Zm-39.969.186a11.672,11.672,0,0,1,2.034-1.8C4.025,23.973,4,24.539,4,25a19.2,19.2,0,0,0,.3,3.145c-.884-1.019-1.59-1.9-2.089-2.544A.97.97,0,0,1,2.031,25.186ZM30,43c-9.347,0-17.709-6.563-22.957-11.887A23.6,23.6,0,0,1,6,25a29.036,29.036,0,0,1,.2-3.07,46.4,46.4,0,0,1,12.716-5.471,14,14,0,1,0,22.158,0A46.4,46.4,0,0,1,53.8,21.93,29.035,29.035,0,0,1,54,25a23.6,23.6,0,0,1-1.043,6.113C47.71,36.437,39.347,43,30,43ZM55.7,28.145A19.2,19.2,0,0,0,56,25c0-.461-.025-1.027-.065-1.612a11.712,11.712,0,0,1,2.034,1.8.977.977,0,0,1-.177.415c-.5.644-1.205,1.523-2.092,2.542Z" fill="#fff"/>
        <path id="Shape-4" data-name="Shape" d="M30.447,47.1a1,1,0,0,0-1.342.448l-2,4A1,1,0,0,0,28,53h2.382L29.1,55.553a1,1,0,1,0,1.79.894l2-4A1,1,0,0,0,32,51H29.618L30.9,48.447a1,1,0,0,0-.453-1.342Z" fill="#fff"/>
        <path id="Shape-5" data-name="Shape" d="M7.559,47.535a1,1,0,0,0,.391-1.656L6.265,44.194l2.708-.9a1,1,0,1,0-.633-1.9L4.1,42.809a1,1,0,0,0-.391,1.655l1.685,1.685-2.708.9a1,1,0,1,0,.632,1.9Z" fill="#fff"/>
        <path id="Shape-6" data-name="Shape" d="M57.316,47.051l-2.708-.9,1.685-1.685a1,1,0,0,0-.391-1.655L51.66,41.4a1,1,0,0,0-.633,1.9l2.708.9L52.05,45.879a1,1,0,0,0,.391,1.656l4.243,1.414a1,1,0,0,0,.632-1.9Z" fill="#fff"/>
      </g>
    </g>
  </g>
</svg>
