<svg xmlns="http://www.w3.org/2000/svg" width="128" height="80" viewBox="0 0 128 80">
  <g id="s6" transform="translate(0 -24)">
    <path id="Show" d="M64,104C22.127,104,1.367,67.5.5,65.943a4,4,0,0,1,0-3.887C1.367,60.5,22.127,24,64,24s62.633,36.5,63.5,38.057a4,4,0,0,1,0,3.887C126.633,67.5,105.873,104,64,104ZM8.707,63.994C13.465,71.205,32.146,96,64,96c31.955,0,50.553-24.775,55.293-31.994C114.535,56.795,95.854,32,64,32,32.045,32,13.447,56.775,8.707,63.994ZM64,88A24,24,0,1,1,88,64,24.027,24.027,0,0,1,64,88Zm0-40A16,16,0,1,0,80,64,16.019,16.019,0,0,0,64,48Z" fill="#fff"/>
  </g>
</svg>
