<svg xmlns="http://www.w3.org/2000/svg" width="63.48" height="63.359" viewBox="0 0 63.48 63.359">
  <g id="vission" transform="translate(-1.26 -1.32)">
    <g id="Group_33254" data-name="Group 33254">
      <path id="Path_35070" data-name="Path 35070" d="M64.29,48.38a4.058,4.058,0,0,0-4.91-1.99L45.93,50.86a4.141,4.141,0,0,0,.09-.87,3.5,3.5,0,0,0-3.5-3.5H33.4a4.6,4.6,0,0,1-2.7-.87l-9.44-6.8a6.1,6.1,0,0,0-3.57-1.15H14.24V37.1a3.64,3.64,0,0,0-3.64-3.64H4.9A3.64,3.64,0,0,0,1.26,37.1V53.48a.75.75,0,0,0,1.5,0V37.1A2.142,2.142,0,0,1,4.9,34.96h5.69a2.142,2.142,0,0,1,2.14,2.14V58.23a2.142,2.142,0,0,1-2.14,2.14H4.9a2.142,2.142,0,0,1-2.14-2.14v-1.5a.75.75,0,0,0-1.5,0v1.5A3.64,3.64,0,0,0,4.9,61.87h5.69a3.64,3.64,0,0,0,3.64-3.64V56.86h1.93a4.026,4.026,0,0,1,2,.54l11.26,6.54a5.509,5.509,0,0,0,2.75.74,5.389,5.389,0,0,0,1.89-.34l23.41-8.57a.75.75,0,0,0-.51-1.41L33.55,62.93a3.956,3.956,0,0,1-3.37-.3L18.92,56.1a5.455,5.455,0,0,0-2.75-.74H14.24V39.16h3.45a4.6,4.6,0,0,1,2.7.87l9.44,6.8a6.1,6.1,0,0,0,3.57,1.15h9.12a2.006,2.006,0,0,1,2,2,2.258,2.258,0,0,1-.53,1.52l-1.38.46-11.9.02a.75.75,0,1,0,0,1.5l11.92-.02h.23a2.984,2.984,0,0,0,1.9-.64l15.09-5.01a2.566,2.566,0,0,1,3.1,1.26,2.578,2.578,0,0,1-1.39,3.61l-1.88.69a.747.747,0,0,0,.25,1.45.6.6,0,0,0,.26-.05l1.88-.69a4.091,4.091,0,0,0,2.22-5.7Z" fill="#fff"/>
      <path id="Path_35071" data-name="Path 35071" d="M40,4.82a.755.755,0,0,0,.75-.75v-2a.75.75,0,0,0-1.5,0v2A.749.749,0,0,0,40,4.82Z" fill="#fff"/>
      <path id="Path_35072" data-name="Path 35072" d="M34.16,5.23a.756.756,0,0,0,.71.49.63.63,0,0,0,.26-.05.749.749,0,0,0,.45-.96L34.9,2.83a.75.75,0,0,0-1.41.51Z" fill="#fff"/>
      <path id="Path_35073" data-name="Path 35073" d="M29.78,8.06a.734.734,0,0,0,1.05.09.748.748,0,0,0,.09-1.06L29.63,5.56a.752.752,0,1,0-1.15.97Z" fill="#fff"/>
      <path id="Path_35074" data-name="Path 35074" d="M24.9,11.22l1.73,1a.742.742,0,0,0,1.02-.28.746.746,0,0,0-.27-1.02l-1.73-1a.75.75,0,0,0-.75,1.3Z" fill="#fff"/>
      <path id="Path_35075" data-name="Path 35075" d="M53.36,25.92a.746.746,0,1,0-.75,1.29l1.73,1a.742.742,0,0,0,1.02-.28.746.746,0,0,0-.27-1.02Z" fill="#fff"/>
      <path id="Path_35076" data-name="Path 35076" d="M23.13,16.86l1.97.35a.57.57,0,0,0,.13.01.759.759,0,0,0,.74-.62.75.75,0,0,0-.61-.87l-1.97-.35a.751.751,0,1,0-.26,1.48Z" fill="#fff"/>
      <path id="Path_35077" data-name="Path 35077" d="M56.74,22.77a.759.759,0,0,0,.74-.62.75.75,0,0,0-.61-.87l-1.97-.35a.751.751,0,0,0-.26,1.48l1.97.35a.57.57,0,0,0,.13.01Z" fill="#fff"/>
      <path id="Path_35078" data-name="Path 35078" d="M23.26,22.77a.57.57,0,0,0,.13-.01l1.97-.35a.751.751,0,0,0-.26-1.48l-1.97.35a.75.75,0,0,0-.61.87.742.742,0,0,0,.74.62Z" fill="#fff"/>
      <path id="Path_35079" data-name="Path 35079" d="M54.03,16.59a.751.751,0,0,0,.74.62.57.57,0,0,0,.13-.01l1.97-.35a.751.751,0,1,0-.26-1.48l-1.97.35a.761.761,0,0,0-.61.87Z" fill="#fff"/>
      <path id="Path_35080" data-name="Path 35080" d="M26.63,25.92l-1.73,1a.742.742,0,0,0-.27,1.02.756.756,0,0,0,.65.38.686.686,0,0,0,.37-.1l1.73-1a.742.742,0,0,0,.27-1.02.752.752,0,0,0-1.02-.28Z" fill="#fff"/>
      <path id="Path_35081" data-name="Path 35081" d="M52.99,12.32a.686.686,0,0,0,.37-.1l1.73-1a.746.746,0,1,0-.75-1.29l-1.73,1a.742.742,0,0,0-.27,1.02.768.768,0,0,0,.65.37Z" fill="#fff"/>
      <path id="Path_35082" data-name="Path 35082" d="M49.64,8.33a.724.724,0,0,0,.57-.27L51.5,6.53a.752.752,0,0,0-1.15-.97L49.06,7.1a.748.748,0,0,0,.09,1.06A.832.832,0,0,0,49.64,8.33Z" fill="#fff"/>
      <path id="Path_35083" data-name="Path 35083" d="M44.87,5.68a.751.751,0,0,0,.26.05.766.766,0,0,0,.71-.49l.68-1.88a.75.75,0,0,0-1.41-.51l-.68,1.88a.729.729,0,0,0,.44.95Z" fill="#fff"/>
      <path id="Path_35084" data-name="Path 35084" d="M27.25,18.84a12.607,12.607,0,0,0,3.9,9.4,10.132,10.132,0,0,1,3.1,7.2A2.741,2.741,0,0,0,35,40.82h.56a2.784,2.784,0,0,0-.31,1.25A2.748,2.748,0,0,0,38,44.82h4a2.748,2.748,0,0,0,2.75-2.75,2.784,2.784,0,0,0-.31-1.25H45a2.741,2.741,0,0,0,.75-5.38,10.354,10.354,0,0,1,2.79-6.87.75.75,0,0,0-1.11-1.01,11.864,11.864,0,0,0-3.17,7.76H40.75V25.77a12.18,12.18,0,0,0,8.85-5.25.75.75,0,0,0,0-.9c-2.55-3.42-5.96-5.3-9.6-5.3s-7.05,1.88-9.6,5.3a.75.75,0,0,0,0,.9,12.18,12.18,0,0,0,8.85,5.25v9.55H35.74a11.576,11.576,0,0,0-3.55-8.16,11.128,11.128,0,0,1-3.44-8.29A11.377,11.377,0,0,1,39.53,7.84a11.249,11.249,0,0,1,9.85,17.45.75.75,0,0,0,1.25.83A12.749,12.749,0,0,0,39.47,6.34a12.9,12.9,0,0,0-12.22,12.5Zm4.7,1.23A10.367,10.367,0,0,1,40,15.82a10.367,10.367,0,0,1,8.05,4.25A10.4,10.4,0,0,1,40,24.32,10.4,10.4,0,0,1,31.95,20.07Zm11.3,22A1.25,1.25,0,0,1,42,43.32H38a1.25,1.25,0,0,1,0-2.5h4A1.25,1.25,0,0,1,43.25,42.07Zm3-4A1.25,1.25,0,0,1,45,39.32H35a1.25,1.25,0,0,1,0-2.5H45A1.25,1.25,0,0,1,46.25,38.07Z" fill="#fff"/>
      <path id="Path_35085" data-name="Path 35085" d="M43,20.07a2.9,2.9,0,0,0-.12-.79,1.5,1.5,0,0,1-2.09-2.09,2.961,2.961,0,0,0-.79-.12,3,3,0,1,0,3,3Z" fill="#fff"/>
    </g>
  </g>
</svg>
