<svg id="ba" xmlns="http://www.w3.org/2000/svg" width="24" height="24" viewBox="0 0 24 24">
  <g id="Group_33249" data-name="Group 33249">
    <path id="Path_35045" data-name="Path 35045" d="M12,24A12,12,0,1,1,24,12,12.013,12.013,0,0,1,12,24ZM12,1A11,11,0,1,0,23,12,11.013,11.013,0,0,0,12,1Z" fill="#00519a"/>
  </g>
  <g id="Group_33250" data-name="Group 33250">
    <path id="Path_35046" data-name="Path 35046" d="M16.5,8h-9a.5.5,0,0,1,0-1h9a.5.5,0,0,1,0,1Z" fill="#00519a"/>
  </g>
  <g id="Group_33251" data-name="Group 33251">
    <path id="Path_35047" data-name="Path 35047" d="M16.5,12.5h-9a.5.5,0,0,1,0-1h9a.5.5,0,0,1,0,1Z" fill="#00519a"/>
  </g>
  <g id="Group_33252" data-name="Group 33252">
    <path id="Path_35048" data-name="Path 35048" d="M16.5,17h-9a.5.5,0,0,1,0-1h9a.5.5,0,0,1,0,1Z" fill="#00519a"/>
  </g>
</svg>
