<svg xmlns="http://www.w3.org/2000/svg" width="16.998" height="16.998" viewBox="0 0 16.998 16.998">
  <g id="close" transform="translate(0.006 0.003)">
    <g id="_02_User" data-name="02 User" transform="translate(-0.006 -0.003)">
      <path id="Path_35049" data-name="Path 35049" d="M.824,16.995a.83.83,0,0,1-.587-1.417L15.575.24a.83.83,0,1,1,1.174,1.174L1.411,16.752a.828.828,0,0,1-.587.243Z" transform="translate(0.006 0.003)" fill="#fff"/>
      <path id="Path_35050" data-name="Path 35050" d="M16.165,16.995a.828.828,0,0,1-.587-.243L.24,1.414A.83.83,0,1,1,1.414.24L16.752,15.578a.83.83,0,0,1-.587,1.417Z" transform="translate(0.003 0.003)" fill="#fff"/>
    </g>
  </g>
</svg>
