<svg id="headphone" xmlns="http://www.w3.org/2000/svg" width="26.996" height="25.442" viewBox="0 0 26.996 25.442">
  <path id="Path_3081" data-name="Path 3081" d="M10.774,38.482a1.689,1.689,0,0,1,1.689-1.689h2.069a1.689,1.689,0,1,1,0,3.379H12.463A1.689,1.689,0,0,1,10.774,38.482Zm12.67-4.356a7.316,7.316,0,0,1-.967.014,4.8,4.8,0,0,1-4.705,3.868h-.645a2.649,2.649,0,0,1,0,.949h.644a5.745,5.745,0,0,0,5.672-4.831Zm.483-1.01A3.681,3.681,0,0,0,27,29.486V27.243a3.681,3.681,0,0,0-3.681-3.681H23.07a9.6,9.6,0,0,0-19.144,0H3.681A3.681,3.681,0,0,0,0,27.243v2.243a3.681,3.681,0,0,0,3.681,3.681H4.767a.816.816,0,0,0,.816-.816v-8.02a7.915,7.915,0,0,1,15.83,0v8.02a.816.816,0,0,0,.448.728A4.978,4.978,0,0,0,23.927,33.116Z" transform="translate(0 -14.729)" fill="#fff"/>
</svg>
