<svg id="map_img" xmlns="http://www.w3.org/2000/svg" width="23.429" height="33.321" viewBox="0 0 23.429 33.321">
  <g id="Group_4919" data-name="Group 4919">
    <path id="map" d="M87.877,33.321a.976.976,0,0,1-.829-.461l-9.3-14.985a11.714,11.714,0,1,1,20.028-.158l-9.062,15.13a.976.976,0,0,1-.83.475ZM87.715,1.952a9.764,9.764,0,0,0-8.306,14.893L87.862,30.47,96.1,16.714A9.765,9.765,0,0,0,87.715,1.952Z" transform="translate(-76)" fill="#fff"/>
    <path id="Path_2821" data-name="Path 2821" d="M171.857,101.715a5.852,5.852,0,1,1,5.035-2.86A5.834,5.834,0,0,1,171.857,101.715Zm0-9.762a3.908,3.908,0,1,0,3.9,3.9A3.909,3.909,0,0,0,171.857,91.952Z" transform="translate(-160.143 -84.143)" fill="#fff"/>
  </g>
</svg>
