<svg xmlns="http://www.w3.org/2000/svg" width="99.337" height="86.022" viewBox="0 0 99.337 86.022">
  <g id="s4" transform="translate(0 -34.313)">
    <g id="Group_33252" data-name="Group 33252" transform="translate(0 34.313)">
      <path id="Path_35047" data-name="Path 35047" d="M0,0H11.64V5.821H0Z" transform="translate(83.906 21.91) rotate(-57.454)" fill="#fff"/>
      <path id="Path_35048" data-name="Path 35048" d="M0,0H11.628V5.821H0Z" transform="translate(66.101 14.021) rotate(-71.275)" fill="#fff"/>
      <path id="Path_35049" data-name="Path 35049" d="M240.967,34.313h5.821V45.955h-5.821Z" transform="translate(-194.212 -34.313)" fill="#fff"/>
      <path id="Path_35050" data-name="Path 35050" d="M0,0H5.821V11.628H0Z" transform="translate(24.003 4.847) rotate(-18.725)" fill="#fff"/>
      <path id="Path_35051" data-name="Path 35051" d="M0,0H5.821V11.64H0Z" transform="translate(4.252 15.24) rotate(-32.546)" fill="#fff"/>
      <path id="Path_35052" data-name="Path 35052" d="M97.807,167.336l1.531-1.894L97.743,163.6a83.088,83.088,0,0,0-13.818-12.115c-11.294-7.964-23.141-12.174-34.261-12.174s-22.958,4.21-34.234,12.175A82.806,82.806,0,0,0,1.642,163.6L0,165.507l1.642,1.9a82.813,82.813,0,0,0,13.789,12.117C26.707,187.491,38.545,191.7,49.665,191.7a51.618,51.618,0,0,0,17.077-3.058,8.707,8.707,0,0,0,1.445,1.914l14.406,14.406,12.348-12.348L82.822,180.5a72.653,72.653,0,0,0,14.984-13.159Zm-37.852,2.64a14.552,14.552,0,1,1,4.262-10.29A14.568,14.568,0,0,1,59.955,169.976Zm-41.044,4.88a83.182,83.182,0,0,1-11.069-9.349,83.175,83.175,0,0,1,11.069-9.35,67.939,67.939,0,0,1,13.611-7.488A20.379,20.379,0,0,0,61.865,176l4.618,4.618a8.71,8.71,0,0,0-.7,2.182,46.338,46.338,0,0,1-16.113,3.078c-12.47,0-23.607-5.995-30.755-11.023ZM82.593,196.73,72.3,186.44a2.91,2.91,0,0,1,4.116-4.116l10.29,10.29Zm-4.372-20.182A8.757,8.757,0,0,0,70.6,176.5l-4.612-4.612a20.4,20.4,0,0,0,.822-23.224,68.167,68.167,0,0,1,13.645,7.495,83.462,83.462,0,0,1,11.141,9.4A72.66,72.66,0,0,1,78.221,176.548Z" transform="translate(0 -118.94)" fill="#fff"/>
      <path id="Path_35053" data-name="Path 35053" d="M219.7,199.313a8.731,8.731,0,1,0,8.731,8.731,8.741,8.741,0,0,0-8.731-8.731Zm0,11.642a2.91,2.91,0,1,1,2.91-2.91,2.914,2.914,0,0,1-2.91,2.91Z" transform="translate(-170.033 -167.298)" fill="#fff"/>
    </g>
  </g>
</svg>
