<svg xmlns="http://www.w3.org/2000/svg" width="997.264" height="765.005" viewBox="0 0 997.264 765.005">
  <g id="s7" transform="translate(2.019 8.926)">
    <path id="Path_35054" data-name="Path 35054" d="M986.129,430.039c-76.809-31.207-165.922,20.051-215.313,56.219a382.4,382.4,0,0,0-.02-225.43c61.4,45.031,144.836,84.93,215.332,56.3a14.608,14.608,0,0,0-10.992-27.07C881.722,327.98,754.378,210.089,753.1,208.894c-1.062-1-2.535-.809-3.781-1.426C682.8,70.277,537.961-20.3,375.621-7.77a14.6,14.6,0,1,0,2.242,29.121c170.93-13.164,321.223,97.887,366.094,257.18a74.782,74.782,0,0,1-17.676,18.07c-30.758,21.969-65.895,8.707-99.09-11-18.648-41.621,4.445-66.7,5.68-67.98a14.609,14.609,0,0,0-20.535-20.785c-1.316,1.3-24.9,25.488-21.437,65.441-20.363-12.3-43.984-21.059-91.578-17.895a14.6,14.6,0,1,0,1.938,29.145c64.6-4.3,71.082,14.539,107.148,34.883,49.434,30.461,100.773,43.961,144.008,4.09,10.316,58.672,5.434,77.715,1.5,107.344-11.547,1.6-44.3,7.063-85.492,23.1a350.108,350.108,0,0,0-105.664,64.324C535.473,485.469,540.6,448.1,540.91,446.2a14.612,14.612,0,0,0-28.824-4.812c-.406,2.41-8.137,53.473,29.094,86.07a276.117,276.117,0,0,0-26.82,33.406,14.609,14.609,0,1,0,24.266,16.273c15.641-23.312,34.7-41.672,54.609-57.445-4.5,40.547,15.844,73.406,17.039,75.27a14.61,14.61,0,0,0,24.6-15.766c-1.176-1.855-27.2-44.621-2.062-86.418,48.57-27.414,95.383-38.68,116.855-42.512C686.625,733.149,325.008,827.61,134.418,597.59c21.352-7.941,40.875-27.387,56.418-56.707a14.636,14.636,0,1,0-26.422-12.543c-15,27.8-32.957,43.309-50.816,44.012C89.347,536.883,77.129,506.993,66,466.5a26.56,26.56,0,0,0,8.32,1.613c27.1,0,49.063-42.324,49.063-94.535s-21.961-94.527-49.063-94.527a26.766,26.766,0,0,0-8.637,1.668c12.57-46.043,26.492-73.031,48.723-105.625,40.2,3.746,83.6,84.406,83.07,198.418-.152,32.961-3.934,65.652-10.934,94.559a14.607,14.607,0,0,0,28.395,6.867c7.633-31.508,11.59-65.59,11.758-101.289.273-58.16-10.484-113.574-30.293-156.023-16.836-36.086-38.9-59.074-63.379-67.793C178.48,94.447,240.168,52.212,312.789,32.567A14.612,14.612,0,0,0,305.16,4.356C218.1,27.923,145.422,81.2,95.336,150.961c-.551.566-1.5.559-1.965,1.219C87.235,160.8,82.52,170.133,77.16,179.149c-6.973,11.75-12.637,17.5-28.09,57.711-.648,1.7-1.547,3.281-2.18,4.988-65.02,49.129-65.3,213.426-.328,263.141a382.311,382.311,0,0,0,358.746,251.09c151.3,0,281.969-88.52,343.969-216.3,1.262-.625,2.758-.5,3.836-1.516,1.27-1.2,128.43-119.176,222.023-81.16a14.6,14.6,0,0,0,10.992-27.062Zm0,0" fill="#fff"/>
    <path id="Path_35055" data-name="Path 35055" d="M552.8,377.145c30.449-21.535,65.926,12.887,67.484,14.43a14.521,14.521,0,0,0,10.3,4.266c12.9,0,19.566-15.7,10.344-24.934-18.6-18.617-64.48-46.27-104.992-17.617a14.606,14.606,0,1,0,16.859,23.855Zm0,0" fill="#fff"/>
    <path id="Path_35056" data-name="Path 35056" d="M556.984,141.375c48.324,3.375,74.289,33.594,75.473,35a14.607,14.607,0,0,0,22.535-18.59c-1.387-1.687-34.57-41.273-95.977-45.555-46.809-3.262-67.676-39.086-68.5-40.535a14.606,14.606,0,1,0-25.563,14.137c1.152,2.086,28.988,51.145,92.027,55.543Zm0,0" fill="#fff"/>
    <path id="Path_35057" data-name="Path 35057" d="M400.871,674.582a14.6,14.6,0,0,0,13.684,15.484c5.75.363,11.281.527,16.6.527,100.547,0,125.715-60.25,126.789-62.945a14.611,14.611,0,1,0-27.086-10.965c-.871,2.047-22.387,49.9-114.512,44.223a14.578,14.578,0,0,0-15.477,13.676Zm0,0" fill="#fff"/>
  </g>
</svg>
