<svg xmlns="http://www.w3.org/2000/svg" width="507.347" height="425.425" viewBox="0 0 507.347 425.425">
  <g id="s9" transform="translate(0 -40.961)">
    <g id="Group_33253" data-name="Group 33253">
      <path id="Path_35059" data-name="Path 35059" d="M137.741,310.532A115.932,115.932,0,1,0,253.674,194.6,116.063,116.063,0,0,0,137.741,310.532Zm216.865,0A100.932,100.932,0,1,1,253.674,209.6,101.046,101.046,0,0,1,354.606,310.532Z" fill="#fff"/>
      <path id="Path_35060" data-name="Path 35060" d="M424.674,238.409a7.5,7.5,0,0,0,4.633-13.4c-59.513-46.667-118.6-70.329-175.634-70.329-30.173,0-61.453,6.829-92.97,20.3a7.5,7.5,0,1,0,5.894,13.794c29.644-12.667,58.941-19.09,87.076-19.09,53.592,0,109.57,22.586,166.378,67.132a7.461,7.461,0,0,0,4.623,1.6Z" fill="#fff"/>
      <path id="Path_35061" data-name="Path 35061" d="M501.1,293.767a521.405,521.405,0,0,0-46.893-47.843,7.5,7.5,0,0,0-10.019,11.163,506.324,506.324,0,0,1,45.524,46.444,10.7,10.7,0,0,1,0,14c-14.923,17.4-46.169,50.965-87.768,80.179-50.714,35.615-100.6,53.674-148.271,53.674S156.116,433.328,105.4,397.713C63.8,368.5,32.557,334.939,17.634,317.534a10.7,10.7,0,0,1,0-14c6.771-7.9,17.875-20.233,32.317-34.153a7.5,7.5,0,0,0-10.409-10.8c-14.867,14.329-26.312,27.045-33.295,35.19a25.618,25.618,0,0,0,0,33.53c15.381,17.938,47.6,52.535,90.535,82.69,53.289,37.423,106.075,56.4,156.892,56.4s103.6-18.975,156.892-56.4C453.5,379.833,485.72,345.236,501.1,327.3a25.623,25.623,0,0,0,0-33.531Z" fill="#fff"/>
      <path id="Path_35062" data-name="Path 35062" d="M189.178,310.532a64.5,64.5,0,0,0,128.99,0,63.913,63.913,0,0,0-6.26-27.737,7.5,7.5,0,1,0-13.538,6.458,49.037,49.037,0,0,1,4.8,21.279,49.509,49.509,0,1,1-23.32-42A7.5,7.5,0,1,0,287.8,255.81a64.487,64.487,0,0,0-98.617,54.722Z" fill="#fff"/>
      <path id="Path_35063" data-name="Path 35063" d="M101.094,115.985h49.251a56.925,56.925,0,0,1,20.112,3.657,71.9,71.9,0,0,0,25.392,4.617H324.5v1.617a21.282,21.282,0,0,0,21.258,21.258h5.859a21.266,21.266,0,0,0,21.21-20.323H474.542a32.763,32.763,0,0,0,0-65.526h-25.97a7.5,7.5,0,0,0,0,15h25.97a17.763,17.763,0,0,1,0,35.526H372.877V76.285H416.61a7.5,7.5,0,0,0,0-15H372.83a21.266,21.266,0,0,0-21.21-20.324h-5.859A21.282,21.282,0,0,0,324.5,62.219v1.617H195.849a71.877,71.877,0,0,0-25.392,4.617,56.943,56.943,0,0,1-20.113,3.657H101.093a21.938,21.938,0,1,0,0,43.875ZM339.5,62.22a6.265,6.265,0,0,1,6.258-6.258h5.859a6.265,6.265,0,0,1,6.258,6.258v63.656a6.265,6.265,0,0,1-6.258,6.258H345.76a6.265,6.265,0,0,1-6.258-6.258ZM101.094,87.11h49.251a71.9,71.9,0,0,0,25.393-4.617,56.947,56.947,0,0,1,20.112-3.657H324.5v30.423H195.849a56.925,56.925,0,0,1-20.112-3.657,71.9,71.9,0,0,0-25.392-4.617H101.094a6.938,6.938,0,1,1,0-13.875Z" fill="#fff"/>
      <path id="Path_35064" data-name="Path 35064" d="M101.067,267.96A50.787,50.787,0,0,0,151.8,217.231c0-18.735-20.358-45.363-37.437-64.4a17.849,17.849,0,0,0-26.584,0c-17.079,19.039-37.437,45.667-37.437,64.4a50.785,50.785,0,0,0,50.729,50.73ZM98.941,162.846a2.847,2.847,0,0,1,4.251,0c21.041,23.456,33.6,43.787,33.6,54.386a35.729,35.729,0,0,1-71.458,0c0-10.6,12.563-30.93,33.6-54.386Z" fill="#fff"/>
    </g>
  </g>
</svg>
